<svg xmlns="http://www.w3.org/2000/svg" xml:space="preserve" width="1000" height="200" style="shape-rendering:geometricPrecision;text-rendering:geometricPrecision;image-rendering:optimizeQuality;fill-rule:evenodd;clip-rule:evenodd" viewBox="0 0 10000000 2000000"><path d="m7845100 940100-508800-708500h455900l238300 332000 238300-332000h722100l238300 332000c105000-146300 210000-292500 315000-438600h455800c-180600 251600-361600 503700-542700 755700l466500 649000h-456300l-238300-332000c-116500 162400-233100 324600-349600 486900h-456000c192600-267900 385100-535900 577700-803900l-371300-516700-414100 576100v1031100l-370800-301200V940100zM3153900 602500h1016100c31000 0 46500 15500 46500 46500 0 30700-15500 46200-46500 46200h-787900v1115600l370800-185400v-559300h264200l268100 463600h664500l439500-760100 225300 389200h-343600l-214300 370900h1444300V917700l834400 775200V231600h-370900v612000L6130000 68700v1242900L5389200 28800l-771900 1336300-203300-351900c115500-63600 173400-185100 173400-364200 0-278100-139300-417400-417400-417400H1809700c-278200 0-417100 139300-417100 417400 0 278200 138900 417100 417100 417100h370900c31000 0 46500 15500 46500 46500 0 30700-15500 46200-46500 46200h-661000L867000 28800 0 1529700h427500l439500-760100 225300 389200H748300l-214200 370900h1646500c278100 0 417300-139000 417300-417100 0-278200-139200-417400-417300-417400h-370900c-30700 0-46200-15500-46200-46200 0-31000 15500-46500 46200-46500h973300c0 372600 100 695000 100 1067500l370800 301200V602500z" style="fill:#332c2b;fill-rule:nonzero"/></svg>